<?xml version="1.0" encoding="UTF-8"?>
<svg width="29px" height="29px" viewBox="0 0 29 29" version="1.1" xmlns="http://www.w3.org/2000/svg" xmlns:xlink="http://www.w3.org/1999/xlink">
    <!-- Generator: Sketch 48.2 (47327) - http://www.bohemiancoding.com/sketch -->
    <title>Artboard</title>
    <desc>Created with Sketch.</desc>
    <defs></defs>
    <g id="Page-1" stroke="none" stroke-width="1" fill="none" fill-rule="evenodd">
        <g id="Artboard">
            <g id="as-knobBlack">
                <g id="g852">
                    <path d="M28.1132943,14.3055207 C28.1132943,21.6886027 22.0033928,27.6739419 14.4683536,27.6739419 C6.93255611,27.6739419 0.823412969,21.6886027 0.823412969,14.3055207 C0.823412969,6.92243869 6.93255611,0.937099433 14.4683536,0.937099433 C22.0033928,0.937099433 28.1132943,6.92243869 28.1132943,14.3055207" id="path6445" fill="#1F302B" fill-rule="nonzero"></path>
                    <g id="g914" transform="translate(-0.000001, 0.544208)" fill-rule="nonzero">
                        <path d="M23.9181957,21.7697314 C23.4704239,22.2847375 21.5020179,22.7164619 20.9344959,23.0995003 C20.3669739,23.4825358 19.2449488,25.136634 18.5963514,25.3616003 C17.9477539,25.5865667 16.0244288,24.9887495 15.3389578,25.0403114 C14.6534868,25.0918733 12.8440976,25.9704786 12.1684654,25.8451248 C11.4928333,25.7197654 10.1299376,24.2525946 9.51019041,23.9588677 C8.89044035,23.6651409 6.87851058,23.5328299 6.35687948,23.090745 C5.83524837,22.64866 5.39797038,20.7052537 5.01000466,20.1449395 C4.62204181,19.5846253 2.94666557,18.4768504 2.7188053,17.8364905 C2.49094503,17.1961305 3.09645238,15.2972325 3.04422722,14.6204673 C2.99200206,13.9437021 2.10209452,12.1572929 2.22906084,11.4902416 C2.3560329,10.8231904 3.84207714,9.47760406 4.13958245,8.86572795 C4.43708776,8.253849 4.57110074,6.26747167 5.0188726,5.75246552 C5.46664446,5.23745937 7.43505039,4.80573501 8.00257241,4.42269663 C8.57009444,4.03966109 9.69211955,2.3855629 10.340717,2.16059656 C10.9893144,1.93563022 12.9126395,2.53344735 13.5981105,2.48188548 C14.2835815,2.4303236 16.0929708,1.5517183 16.7686029,1.67707209 C17.444235,1.80243154 18.8071307,3.26960234 19.4268779,3.56332919 C20.046628,3.85705604 22.0585578,3.98936983 22.5801889,4.43145194 C23.10182,4.87353689 23.539098,6.81694316 23.9270637,7.37725739 C24.3150265,7.93757163 25.9904028,9.0453465 26.218263,9.68570643 C26.4461233,10.3260664 25.840616,12.2249644 25.8928411,12.9017296 C25.9450663,13.5784948 26.8349738,15.364904 26.7080075,16.0319552 C26.5810354,16.6990065 25.0949912,18.0445928 24.7974859,18.6564689 C24.4999806,19.2683479 24.3659676,21.2547252 23.9181957,21.7697314 Z" id="path832" stroke="#0B4533" stroke-width="0.66843035" fill="#185C47" stroke-linecap="round" transform="translate(14.468534, 13.761098) rotate(-8.416676) translate(-14.468534, -13.761098) "></path>
                        <path d="M21.6772479,19.8288884 C21.3356643,20.2190854 19.8340585,20.5461825 19.401122,20.8363936 C18.9681855,21.1266048 18.1122439,22.379841 17.6174573,22.5502873 C17.1226735,22.7207308 15.6554545,22.2677956 15.1325414,22.3068665 C14.6096255,22.3459401 13.2293251,23.0116141 12.7139153,22.9166375 C12.1985084,22.8216745 11.1588175,21.7100501 10.6860388,21.4875048 C10.2132601,21.2649541 8.67844963,21.1647124 8.28052143,20.8297653 C7.88259323,20.4948181 7.54901528,19.0223862 7.25305407,18.5978609 C6.95709285,18.173333 5.67902579,17.3340237 5.50519964,16.8488501 C5.33137903,16.3636764 5.7932912,14.9249658 5.75344343,14.4122094 C5.71359567,13.8994557 5.03473241,12.5459696 5.13158801,12.0405762 C5.2284325,11.5351801 6.36208472,10.5156888 6.58903938,10.0520981 C6.81599958,9.58850474 6.91822463,8.08351329 7.25981098,7.69331621 C7.60139456,7.30311913 9.10300036,6.97601935 9.53593687,6.68581092 C9.96887339,6.39559977 10.824815,5.14236083 11.3196016,4.97191456 C11.8143854,4.80147102 13.2816044,5.25440895 13.8045203,5.21533537 C14.3274334,5.17626179 15.7077338,4.5105905 16.2231436,4.60556434 C16.7385533,4.70055451 17.7782414,5.81215443 18.2510201,6.03469972 C18.7237988,6.25725044 20.2586093,6.35748942 20.6565375,6.69243928 C21.0544657,7.02738642 21.3880436,8.49981838 21.6840048,8.92434361 C21.979966,9.34886885 23.2580359,10.1881809 23.4318593,10.6733545 C23.6056799,11.1585254 23.1437677,12.5972387 23.1836155,13.1099924 C23.2234632,13.6227489 23.9023237,14.9762322 23.8054681,15.4816284 C23.7086236,15.9870218 22.5749714,17.0065131 22.3480167,17.4701064 C22.1210565,17.9336998 22.0188315,19.4386913 21.6772451,19.8288884 L21.6772479,19.8288884 Z" id="path896" fill="#0B3B2D" transform="translate(14.468528, 13.761101) rotate(-9.076703) translate(-14.468528, -13.761101) "></path>
                    </g>
                    <g id="g6631" transform="translate(14.653515, 7.741064) scale(-1, 1) rotate(-180.000000) translate(-14.653515, -7.741064) translate(13.179378, 1.241064)" fill="#242424">
                        <path d="M2.51436915,12.3428204 C2.11484316,12.3720534 1.70917061,12.3876443 1.28915611,12.3876443 C0.867092752,12.3876443 0.461420206,12.3720534 0.0639430649,12.3428204 L0.0639430649,0.547631453 L2.51436915,0.547631453 L2.51436915,12.3428204 Z" id="path6629"></path>
                    </g>
                    <g id="g900" transform="translate(14.104314, 7.539877) scale(-1, 1) rotate(-180.000000) translate(-14.104314, -7.539877) translate(13.121555, 1.539877)" fill="#E0E0E0">
                        <path d="M1.92151104,11.6441695 C1.73416371,11.6717478 1.54393412,11.6864562 1.34697924,11.6864562 C1.1490636,11.6864562 0.958834007,11.6717478 0.772447437,11.6441695 L0.772447437,0.516633416 L1.92151104,0.516633416 L1.92151104,11.6441695 Z" id="path898"></path>
                    </g>
                </g>
            </g>
        </g>
    </g>
</svg>