<?xml version="1.0" encoding="UTF-8"?>
<svg width="37px" height="36px" viewBox="0 0 37 36" version="1.1" xmlns="http://www.w3.org/2000/svg" xmlns:xlink="http://www.w3.org/1999/xlink">
    <!-- Generator: Sketch 48.2 (47327) - http://www.bohemiancoding.com/sketch -->
    <title>Artboard</title>
    <desc>Created with Sketch.</desc>
    <defs></defs>
    <g id="Page-1" stroke="none" stroke-width="1" fill="none" fill-rule="evenodd">
        <g id="Artboard">
            <g id="as-knobBlack" transform="translate(-1.000000, -1.000000)">
                <g id="g852">
                    <path d="M37.4843924,19.0740276 C37.4843924,28.9181369 29.3378571,36.8985892 19.2911382,36.8985892 C9.24340815,36.8985892 1.09788396,28.9181369 1.09788396,19.0740276 C1.09788396,9.22991825 9.24340815,1.24946591 19.2911382,1.24946591 C29.3378571,1.24946591 37.4843924,9.22991825 37.4843924,19.0740276" id="path6445" fill="#334E46" fill-rule="nonzero"></path>
                    <g id="g914" transform="translate(-0.000001, 0.725611)" fill-rule="nonzero">
                        <path d="M31.8909277,29.0263085 C31.2938985,29.7129834 28.6693573,30.2886159 27.9126612,30.7993337 C27.1559652,31.3100477 25.6599317,33.515512 24.7951352,33.8154671 C23.9303386,34.1154222 21.3659051,33.3183327 20.4519438,33.3870819 C19.5379824,33.4558311 17.1254634,34.6273048 16.2246206,34.4601664 C15.3237777,34.2930205 13.5065835,32.3367928 12.6802539,31.9451569 C11.8539205,31.5535211 9.17134744,31.3771065 8.4758393,30.7876599 C7.78033116,30.1982133 7.19729384,27.607005 6.68000621,26.8599193 C6.16272242,26.1128337 3.92888742,24.6358005 3.62507373,23.7819873 C3.32126004,22.928174 4.12860318,20.3963101 4.05896963,19.4939564 C3.98933608,18.5916028 2.8027927,16.2097239 2.97208112,15.3203222 C3.1413772,14.4309205 5.12276952,12.6368054 5.51944327,11.8209706 C5.91611701,11.005132 6.09480098,8.35662889 6.69183013,7.66995403 C7.28885927,6.98327916 9.91340052,6.40764668 10.6700966,5.89692885 C11.4267926,5.38621479 12.9228261,3.18075053 13.7876226,2.88079541 C14.6524192,2.5808403 17.2168527,3.37792981 18.130814,3.30918064 C19.0447754,3.24043147 21.4572944,2.06895773 22.3581372,2.23609611 C23.25898,2.40324206 25.0761743,4.35946978 25.9025039,4.75110558 C26.7288373,5.14274139 29.4114103,5.31915977 30.1069185,5.90860259 C30.8024266,6.49804919 31.3854639,9.08925755 31.9027516,9.83634319 C32.4200354,10.5834288 34.6538704,12.060462 34.9576841,12.9142752 C35.2614977,13.7680885 34.4541546,16.2999525 34.5237881,17.2023061 C34.5934217,18.1046598 35.7799651,20.4865386 35.6106767,21.3759403 C35.4413806,22.2653421 33.4599883,24.0594571 33.0633145,24.8752919 C32.6666408,25.6911305 32.4879568,28.3396336 31.8909277,29.0263085 Z" id="path832" stroke="#0B4533" stroke-width="0.66843035" fill="#185C47" stroke-linecap="round" transform="translate(19.291379, 18.348131) rotate(-8.416676) translate(-19.291379, -18.348131) "></path>
                        <path d="M28.9029972,26.4385178 C28.4475524,26.9587806 26.4454114,27.39491 25.8681627,27.7818582 C25.290914,28.1688064 24.1496585,29.839788 23.4899431,30.0670497 C22.8302314,30.2943078 20.8739393,29.6903941 20.1767218,29.7424886 C19.4795007,29.7945867 17.6391001,30.6821521 16.9518871,30.5555167 C16.2646778,30.4288994 14.8784233,28.9467335 14.2480517,28.6500065 C13.6176801,28.3532722 11.5712662,28.2196166 11.0406952,27.7730204 C10.5101243,27.3264242 10.0653537,25.3631816 9.67073876,24.7971479 C9.2761238,24.2311107 7.57203439,23.1120316 7.34026618,22.4651334 C7.10850537,21.8182352 7.72438826,19.8999545 7.67125791,19.2162792 C7.61812756,18.5326076 6.71297655,16.7279595 6.84211734,16.0541016 C6.97124333,15.3802401 8.48277962,14.0209184 8.78538583,13.4027975 C9.08799944,12.784673 9.22429951,10.7780177 9.67974798,10.2577549 C10.1351927,9.73749217 12.1373338,9.30135914 12.7145825,8.91441456 C13.2918312,8.52746636 14.4330867,6.8564811 15.0928021,6.62921942 C15.7525138,6.40196136 17.7088059,7.00587861 18.4060271,6.95378049 C19.1032445,6.90168238 20.9436451,6.01412067 21.6308581,6.14075246 C22.3180711,6.26740601 23.7043218,7.74953924 24.3346935,8.04626629 C24.9650651,8.34300059 27.011479,8.47665256 27.5420499,8.92325238 C28.0726209,9.36984856 28.5173915,11.3330912 28.9120064,11.8991248 C29.3066214,12.4651585 31.0107145,13.5842411 31.242479,14.2311393 C31.4742398,14.8780339 30.8583569,16.7963183 30.9114873,17.4799899 C30.9646176,18.1636652 31.8697649,19.9683096 31.7406241,20.6421711 C31.6114981,21.316029 30.0999619,22.6753507 29.7973556,23.2934753 C29.494742,23.9115998 29.358442,25.918255 28.9029935,26.4385178 L28.9029972,26.4385178 Z" id="path896" fill="#0B3B2D" transform="translate(19.291371, 18.348135) rotate(-9.076703) translate(-19.291371, -18.348135) "></path>
                    </g>
                    <g id="g6631" transform="translate(19.683614, 10.567032) scale(-1, 1) rotate(-180.000000) translate(-19.683614, -10.567032) translate(17.572503, 2.145980)" fill="#242424">
                        <path d="M3.3524922,16.4570939 C2.81979088,16.4960712 2.27889415,16.5168591 1.71887481,16.5168591 C1.15612367,16.5168591 0.615226941,16.4960712 0.0852574198,16.4570939 L0.0852574198,0.730175271 L3.3524922,0.730175271 L3.3524922,16.4570939 Z" id="path6629"></path>
                    </g>
                    <g id="g900" transform="translate(19.495407, 10.053169) scale(-1, 1) rotate(-180.000000) translate(-19.495407, -10.053169) translate(17.495407, 2.053169)" fill="#E0E0E0">
                        <path d="M2.56201472,15.5255594 C2.31221828,15.5623304 2.05857882,15.5819417 1.79597232,15.5819417 C1.5320848,15.5819417 1.27844534,15.5623304 1.02992992,15.5255594 L1.02992992,0.688844555 L2.56201472,0.688844555 L2.56201472,15.5255594 Z" id="path898"></path>
                    </g>
                </g>
            </g>
        </g>
    </g>
</svg>