<svg xmlns="http://www.w3.org/2000/svg" width="180" height="380" viewBox="0 0 180 380">
  <g fill="none" fill-rule="evenodd">
    <rect width="180" height="380" fill="#485E72"/>
    <g transform="translate(-54)">
      <polygon fill="#C7C7C7" points="54 0 234 0 234 380 54 380"/>
      <path fill="#323232" fill-opacity=".1" fill-rule="nonzero" d="M64.068234,241.502568 L88.0610242,217.680172 C88.040666,217.660168 88.0203246,217.640149 88,217.620115 L90.0926699,215.525668 C90.1158079,215.548455 90.1389687,215.571221 90.1621523,215.593966 L99.1208404,206.698901 C95.3789191,203.232539 91.9637984,199.481058 89,195.419798 L89.6716234,195 C91.3001782,197.22915 93.0467005,199.380831 94.9221202,201.441782 C96.4162487,203.086064 98.0097857,204.649887 99.6538194,206.169707 L101.879538,203.959795 C98.6013379,200.472455 95.6051427,196.693184 93,192.613419 L96.6270986,190 C97.9738709,192.104595 99.4139276,194.13763 100.955782,196.079899 C102.233034,197.694878 103.593639,199.234531 105,200.7256 L103.039234,202.808336 L109.672458,196.22222 C94.0719891,180.283057 87.043066,156.784377 93.2435943,133.7018 C99.7230318,109.580509 118.935118,92.2607523 141.73211,87 L142,88.1506642 C135.769814,89.5930051 129.807518,91.9457415 124.314122,95.1064222 C110.078291,103.307275 98.9811254,116.917635 94.3919046,134.012801 C89.7986636,151.102862 92.5875737,168.42663 100.809212,182.628364 C103.48454,187.255358 106.751181,191.538964 110.515194,195.385469 L112.999526,192.918781 C98.0497124,178.069476 91.2411021,155.859327 97.0819728,134.049074 C105.764123,101.634339 139.084158,82.3994827 171.497593,91.0860628 C182.31811,93.9855994 191.663351,99.6414092 199,107.083091 L198.813722,107.2701 C191.505872,99.859403 182.202917,94.2269237 171.425779,91.3394168 C155.29288,87.0149005 138.931418,89.6395753 125.524154,97.3867406 C112.116525,105.123334 101.664188,117.977315 97.3400642,134.115055 C93.0155754,150.252796 95.6402335,166.610353 103.382246,180.021712 C106.060234,184.660523 109.364928,188.934023 113.187414,192.732227 L117.828027,188.124571 C105.415357,175.060378 99.8429009,155.893618 104.803832,137.06058 C107.697423,126.073037 113.751508,116.809495 121.703681,110 L122,110.358087 C120.858492,111.333792 119.760032,112.370821 118.702827,113.450558 L120.421906,115.190255 C114.461094,121.255105 109.942414,128.945034 107.603792,137.824572 C104.968135,147.833125 105.47611,157.940963 108.51499,167.065066 L106.199328,167.858625 C107.307474,171.185441 108.73131,174.391799 110.454694,177.426961 C111.910458,179.997814 113.583259,182.445291 115.447627,184.744202 L117.326703,183.157084 C118.143522,184.162153 119.012769,185.122443 119.911217,186.056175 L161.818666,144.446349 C161.713016,144.336918 161.606903,144.227888 161.500332,144.119259 L163.621829,142 C163.730591,142.110729 163.838847,142.221908 163.946596,142.333531 L238.140442,68.6666012 C238.09366,68.6217072 238.046846,68.5768363 238,68.5319886 L238.521918,68 C238.571138,68.0470838 238.620322,68.0941937 238.66947,68.1413295 L247.159708,59.7113887 C231.730542,44.3820242 212.234708,32.7264968 189.712208,26.6908869 C185.934973,25.6788526 182.151897,24.8453863 178.371952,24.1853172 C181.693325,24.8143824 185.016448,25.5823401 188.335197,26.4931555 C211.00308,32.713725 230.583724,44.8139144 246,60.7294754 L243.783809,63 C228.400129,47.118571 208.451871,35.0424967 185.826001,28.8315732 C174.036253,25.5953337 164.627128,25.0050715 153,25.2039279 C153.005374,25.1290065 153.011239,23.0749069 153.010093,22.3043492 C131.206054,22.8549859 110.202978,28.9617209 91.8071748,39.5837276 C63.2119286,56.0905565 40.9119878,83.508456 31.691159,117.925807 C22.4706958,152.342792 28.0716418,187.233281 44.5797701,215.833295 C49.9521485,225.143159 56.5119086,233.76391 64.0682343,241.502568 Z M64.9270394,242.373984 C65.0380197,242.485556 65.1492093,242.59694 65.2606075,242.708135 L68.8844714,239.06322 C70.5256101,240.697784 72.2213442,242.279267 73.9858686,243.77472 C84.8657639,252.977292 97.9998698,259.480575 112.313356,262.370488 C114.21824,262.645477 116.147065,262.861212 118.097775,263.015407 C122.418369,263.353287 126.676518,263.379431 130.867892,263.115348 L130.932671,264.031043 C132.145606,264.00588 133.363229,263.954974 134.584979,263.877852 L134.714552,265.684842 C135.400635,265.641278 136.081622,265.594053 136.7728,265.531453 C155.612228,263.896888 172.528441,256.390704 185.919972,244.954242 L188.703248,248.256685 C192.634847,244.896401 196.285097,241.210302 199.597584,237.245979 C203.505525,232.573284 206.950861,227.515835 209.881544,222.142821 L206.106816,220.067491 C214.151635,205.337739 218.101068,188.144607 216.558201,170.145359 C215.190404,154.169457 209.671533,139.569298 201.160833,127.313175 L204.677507,124.84943 C203.161574,122.668302 201.569935,120.549774 199.883664,118.517277 L200.50314,118 C212.249894,132.154269 219.956221,149.942286 221.652683,169.704594 C226.046523,221.035417 188.240642,266.231405 137.20738,270.65077 C108.997192,273.095113 82.6669064,262.550066 64,243.976066 L65.07486,242.894962 C64.9630689,242.783356 64.8514931,242.671557 64.7401328,242.559564 L3.8677824,303 L3,302.137103 L44.9419522,260.493017 C39.514793,255.261212 34.4078095,249.590677 29.6920818,243.482058 C26.1491546,238.892723 22.9361296,234.169881 20,229.344422 L20.6264435,229 C23.5429272,233.802734 26.7463146,238.502852 30.2751561,243.073012 C34.9670386,249.151337 40.0558043,254.772984 45.4604606,259.978191 L63.8815607,241.687916 C33.0654854,210.105308 19.1842697,163.573449 31.4322825,117.858529 C46.6206878,61.1855677 97.1922964,23.4469254 153.008894,22.0406954 C153.008724,22.0292099 153.008536,22.0215874 153.00833,22.0181445 C153.898572,22.0029449 154.790102,21.9972736 155.682798,22.0012105 C166.938984,21.952317 178.387815,23.3838011 189.78424,26.4371326 C212.349923,32.4827448 231.885472,44.1619273 247.34689,59.5255361 L284.133682,23 L285,23.8625333 L239.548833,68.9912055 C294.566485,122.574972 303.516527,209.026706 257.051309,272.979112 C254.002504,277.179658 250.779353,281.182221 247.402346,285 L244.210116,282.116776 C249.198698,276.957844 249.224402,276.48195 253.556955,270.518252 C274.975335,241.037067 284.279333,206.658728 282.473295,173.084054 L286.041784,172.903669 C285.725131,167.017332 285.084375,161.160325 284.106478,155.35208 C283.096542,149.37115 281.732328,143.449249 280.026875,137.619006 L276.584303,138.590225 C272.280063,123.841933 265.73206,109.676592 257.022252,96.6349896 L260.009962,94.705752 C254.009023,85.7226689 246.989216,77.2811067 239.019603,69.5166801 L218.841154,89.551955 C249.867497,121.219226 263.85883,167.9687 251.556359,213.891995 C233.028134,283.044465 161.949928,324.07917 92.7963624,305.55114 C70.1314457,299.479976 50.5180901,287.739435 35,272.295194 L35.1869649,272.108231 C50.6716947,287.517279 70.2461908,299.234358 92.8634498,305.297457 C127.36618,314.541859 162.353186,308.926005 191.028476,292.370984 C219.698266,275.821462 242.052308,248.325808 251.296808,213.824909 C260.546807,179.317777 254.930893,144.330774 238.380097,115.661652 C232.945011,106.251801 226.309709,97.5428262 218.65743,89.7343748 L199.833442,108.424799 C219.910711,128.834937 231.274401,157.49574 228.617836,188.178131 C223.779313,244.045531 174.332117,285.431623 118.171485,280.619456 C114.374418,280.295609 110.653885,279.751372 107,279.035922 L107.086056,278.582755 C110.720899,279.30294 114.43191,279.836614 118.209935,280.161918 C131.060054,281.263142 143.554598,279.927684 155.239853,276.555525 L154.606704,274.385132 C164.292172,271.589995 173.401618,267.350115 181.677972,261.908105 L182.929257,263.796179 C186.198639,261.645457 189.349373,259.312959 192.34594,256.804148 C195.251324,254.366736 198.023048,251.767947 200.64573,249.020896 L198.996392,247.465047 C213.960915,231.792173 223.885509,211.158141 225.899211,187.944626 C226.95861,175.66759 225.712085,163.723872 222.523633,152.534583 L224.710178,151.914574 C220.749422,138.015754 213.859846,125.247301 204.677894,114.39643 C203.027679,112.447328 201.290811,110.578471 199.494765,108.761073 L172.8523,135.214499 C188.084014,151.194146 194.882136,174.536912 188.761482,197.466463 C179.447728,232.38567 143.697773,253.109931 108.915619,243.753549 C97.6621184,240.725611 87.9058286,234.908411 80.1508164,227.258226 L76.6829198,230.701517 C78.0672853,232.075103 79.5008705,233.394577 81,234.642645 L78.3212048,238 C76.6918112,236.648893 75.150822,235.201842 73.6570958,233.705871 L69.9517061,237.384969 C78.3579702,245.272809 88.54529,251.471974 100,255.281397 L99.7373448,256 C88.1753623,252.152895 77.9082104,245.878876 69.417702,237.915185 L64.9270394,242.373984 Z M159.050912,148.917959 L99.3644718,208.1809 C102.691099,211.297165 106.594704,213.899434 111,215.760791 L110.896581,216 C106.457083,214.126013 102.538522,211.493827 99.1923984,208.351752 L91.0458631,216.440484 C96.9037681,221.919026 104.13142,226.09378 112.428591,228.316754 C112.811001,228.422206 113.19268,228.517442 113.579833,228.609028 L113.83307,227.605591 C126.666045,230.725003 139.598635,228.521455 150.253554,222.369474 C161.222282,216.033954 169.775044,205.523042 173.315251,192.31781 C175.938477,182.533751 175.432004,172.648618 172.422354,163.724231 L173.401001,163.385252 C172.326387,160.203079 170.940517,157.140589 169.268206,154.240473 C167.416335,151.034738 165.181569,148.065516 162.65879,145.335682 L159.383572,148.58766 C169.992415,159.840172 174.710929,176.190762 170.425439,192.247861 C167.920694,201.612328 162.726406,209.527451 155.893149,215.374207 L155.855177,215.322289 C155.177818,215.902099 154.49612,216.467024 153.791276,217 L153,215.954743 C158.82994,211.525598 163.611608,205.639273 166.734036,198.647746 C165.455328,201.27106 163.921901,203.728623 162.171461,206 L160,204.461973 C163.070703,200.479763 165.425427,195.892964 166.846002,190.815438 C169.335422,181.904484 168.540143,172.902587 165.17197,164.971634 L167.607924,164.024621 C166.785173,161.910798 165.804746,159.86396 164.677112,157.902163 C163.587842,156.015328 162.365848,154.208003 161.016555,152.492534 L161.698977,151.945762 C160.866966,150.893207 159.976075,149.891965 159.050912,148.917959 Z M164.786159,143.223407 C176.800713,156.252867 182.092944,174.962565 177.166347,193.349708 C169.516699,221.877242 140.196332,238.808693 111.663773,231.164691 C102.851333,228.801617 95.1585779,224.362665 88.9435823,218.527849 L86.2819949,221.170551 C93.0132382,227.802858 101.477799,232.843281 111.229483,235.471175 C118.060717,237.314038 124.935581,237.81288 131.581028,237.142149 L131.709007,238.439724 C139.958552,237.601859 147.865973,234.996836 154.916444,230.89748 C157.329499,229.498967 159.642935,227.924542 161.838209,226.18591 L162,226.396564 C148.056123,237.438748 129.285771,241.964168 110.825186,236.988547 C100.79427,234.286351 92.0944074,229.099629 85.1664595,222.278171 L80.9958534,226.419185 C88.6058714,233.925855 98.1794792,239.631616 109.225956,242.60407 C126.299958,247.196499 143.607076,244.408931 157.795162,236.182277 C171.983248,227.95599 183.043923,214.303783 187.621394,197.15523 C192.195587,180.012163 189.414938,162.634299 181.226338,148.388884 C178.663489,143.932993 175.569421,139.78616 172.010744,136.050083 L164.786159,143.223407 Z M196.753345,227 L195,225.852974 C201.203476,217.013408 205.683407,206.935892 207.910547,196 L210,196.410606 C207.708354,207.621076 203.114878,217.948636 196.753345,227 Z M160.234462,238 L160,237.602654 C163.149262,235.725935 166.149158,233.607841 168.941521,231.238601 C179.453543,222.321834 187.210186,210.106514 190.557646,196 L191,196.110012 C186.731208,214.081785 175.344889,228.998191 160.234462,238 Z M191,161.870413 L190.59306,162 C189.876183,159.325158 189.013294,156.713645 188,154.177176 L188.389027,154 C189.407053,156.549648 190.278729,159.177267 191,161.870413 Z M121,220.779019 L120.507437,224 C118.845638,223.755796 117.178674,223.421811 115.512079,222.988708 C110.560257,221.69658 106.023885,219.641674 102,216.993855 L103.390982,215 C107.188694,217.501656 111.468638,219.443438 116.154808,220.666613 C116.478387,220.751008 116.7968,220.830374 117.115951,220.906149 L117.333269,220.083397 C118.555635,220.375364 119.777633,220.600176 121,220.779019 Z M135,218.242383 C133.368482,218.582677 131.71204,218.838412 130.030291,219 L130,218.753167 C131.666794,218.591578 133.317868,218.340637 134.934816,218 L135,218.242383 Z M183.53929,167.068462 L183.860086,167 C186.750956,176.436183 186.806042,186.569262 183.454114,196.61974 L183.320796,197 L183,196.930794 L183.133318,196.55165 C186.467193,186.549914 186.412106,176.46074 183.53929,167.068462 Z M181,158.902497 L180.737053,159 C179.665195,156.633338 178.419109,154.339715 177,152.125513 L177.252509,152 C178.671618,154.223421 179.92774,156.530163 181,158.902497 Z M163.372491,247.322036 C164.823496,246.495782 166.234494,245.600287 167.626969,244.678101 L168,245.290828 C154.031162,254.554465 137.14772,259.290339 119.3856,257.694694 C116.533599,257.436296 113.744944,257.016207 111,256.453379 L111.848302,252.046692 C114.433588,252.574318 117.067771,252.969265 119.754926,253.207161 C134.853599,254.564523 149.27326,251.084663 161.627359,244 L163.372491,247.322036 Z M198.283669,187.526486 C198.333603,186.94936 198.373245,186.371495 198.41365,185.79474 L196.856169,185.688057 C196.995679,183.495871 197.020837,181.318131 196.960611,179.16447 L202.970597,179 C203.050262,181.934151 202.970597,184.902011 202.700344,187.899876 C201.912455,196.819014 199.606728,205.258819 196.062563,213 L192,211.243065 C195.349003,203.929357 197.535423,195.961105 198.283669,187.526486 Z M196.59853,220 L196,219.614891 C200.139455,211.269403 203.013113,201.963901 204.308091,192 L205,192.120645 C203.688486,202.176501 200.784675,211.572119 196.59853,220 Z M165.361752,250 L165,249.329897 C169.388503,246.885887 173.526861,244.028084 177.35378,240.793459 C178.420612,239.89513 179.459808,238.958763 180.480579,238 L181,238.554213 C176.286948,242.990402 171.035697,246.843939 165.361752,250 Z M87,234.403425 L87.2699945,234 C96.7823341,241.31499 108.181692,246.079829 120.684938,247.238737 C127.634905,247.879634 134.430747,247.363202 140.903626,245.841963 L141,246.313349 C134.478567,247.844467 127.644469,248.376704 120.641901,247.730276 C108.056627,246.566626 96.5745046,241.770177 87,234.403425 Z M163.7872,189.298677 C166.964089,176.421959 163.717448,163.322997 156.179219,154 L156,154.175189 C157.525534,156.061723 158.884198,158.104624 160.037943,160.274934 C164.538787,168.730676 166.067992,179.047615 163.551245,189.226647 C162.974205,191.564183 162.205263,193.785892 161.274791,195.885621 L161.493058,196 C162.428203,193.886155 163.205822,191.648882 163.7872,189.298677 Z M72.2622741,265 C76.9251378,267.876963 81.8541213,270.409738 87,272.576581 L86.8038713,273 C81.6376106,270.82505 76.6886297,268.28122 72,265.391358 L72.2622741,265 Z M185.907524,196.701292 C191.714536,175.008755 185.081302,152.924753 170.390757,138 L170.20308,138.186202 C173.841534,141.884219 176.994666,146.011819 179.571936,150.475537 C187.351763,163.960889 189.996479,180.408247 185.648001,196.634215 C181.300257,212.86055 170.789206,225.785464 157.307202,233.569662 C143.8208,241.353861 127.372976,243.992945 111.14582,239.643954 C100.587116,236.815736 91.4389282,231.368593 84.1873111,224.200548 L84,224.388582 C91.2857069,231.589616 100.472384,237.062783 111.07874,239.904197 C143.671611,248.634434 177.17208,229.293247 185.907524,196.701292 Z M135,262.600256 C137.898374,262.236193 140.757945,261.704626 143.568736,261 L144,263.344621 C141.115669,264.065912 138.18884,264.620126 135.217295,265 L135,262.600256 Z M161.869893,156 C163.049353,157.863002 164.094009,159.829124 165,161.875731 L162.944148,163 C162.586706,162.195514 162.211248,161.400729 161.806512,160.619598 C161.246702,159.542398 160.648285,158.493225 160,157.477466 L161.869893,156 Z M150.159446,210 L150,209.797324 C152.569897,207.562739 154.86224,204.943032 156.790879,202 L157,202.153754 C155.053298,205.116281 152.74706,207.751069 150.159446,210 Z M96,215.324255 L96.2841035,215 C100.549709,218.276623 105.499595,220.882019 111,222.594165 L110.854816,223 C105.301717,221.264791 100.303928,218.632546 96,215.324255 Z M107.578311,226 C101.630541,223.651452 96.3839503,220.148327 92,215.825466 L92.7981963,215 C97.0767244,219.215067 102.194427,222.629021 108,224.921702 L107.578311,226 Z M173.07442,95 C178.494585,96.8380165 183.493274,99.4760331 188,102.765873 L187.855453,103 C183.371625,99.7253281 178.3919,97.0978123 173,95.2702965 L173.07442,95 Z M190.89304,115 C189.199773,113.276748 187.421878,111.629478 185.480904,110.153807 L186.974771,108.182974 C181.691209,104.17514 175.556656,101.100552 168.755981,99.2722325 C163.825093,97.9539809 158.868417,97.3777457 154.00908,97.4777234 L154,97.0109183 C158.901832,96.9113042 163.90064,97.4915385 168.875113,98.8246959 C178.371504,101.373582 186.570523,106.345929 193,112.887743 L190.89304,115 Z M114.670975,139.056933 C112.569044,147.133599 112.976037,155.290929 115.398659,162.655125 L113.554939,163.297236 C113.83904,164.157885 114.155935,165.009295 114.494577,165.852176 L114.146614,166 C110.775033,157.551997 109.965536,147.944144 112.438213,138.442895 C112.83623,136.921657 113.311227,135.441995 113.852848,134 L116,134.869177 C115.489447,136.228021 115.041376,137.618847 114.670975,139.056933 Z M107,144.872857 L107.013077,144.76008 L109.572818,133.196508 C110.977423,129.137981 112.84777,125.390128 115.113111,122 L116,122.676661 C113.03219,127.129548 110.740695,132.21887 109.33542,137.814969 C108.738236,140.207346 108.326143,142.611215 108.088745,145 L107,144.872857 Z M199.698134,100 C194.990962,95.7762312 189.719092,92.2160636 184,89.4448745 L184.1948,89 C189.952926,91.7872031 195.26383,95.3774456 200,99.6269929 L199.698134,100 Z M107,117.859478 C108.459355,115.418087 110.07303,113.127652 111.83295,111 L112,111.173217 C110.247842,113.286609 108.637273,115.573217 107.186611,118 L107,117.859478 Z M115,57.5884869 C130.001373,50.9421342 146.833883,47.8711407 164.338074,49.3755662 C164.554501,49.3947148 164.777431,49.4228957 165,49.4416829 L164.962423,49.8965513 C164.740216,49.8727059 164.517647,49.8495831 164.295077,49.8300733 C146.876879,48.3303446 130.120245,51.3861638 115.188967,58 L115,57.5884869 Z M222,84.5025855 L217.07129,89.3935544 C203.124542,75.406134 184.307467,66.0658812 162.999783,64.2433839 C145.341173,62.7302848 128.47568,66.595393 114.018914,74.4589894 L113.134735,72.8839378 C107.980942,75.6900223 103.129707,78.9873539 98.6537351,82.7278281 C89.7017907,90.2007593 82.2453864,99.4240312 76.8316264,109.920974 L72.9662811,107.964732 C67.6590044,118.261605 64.2214284,129.727922 63.1643058,141.967188 C62.3895477,150.842068 62.9186597,159.525989 64.5864092,167.842932 L63.7881513,168 C62.1060817,159.611994 61.571829,150.846806 62.3513605,141.895761 C66.7836379,90.8013343 112.120206,52.9487114 163.600863,57.3477045 C186.604937,59.3167012 206.932607,69.4036641 222,84.5025855 Z M107.025813,153 C106.978292,151.344895 106.996112,149.674615 107.081537,148 L108,148.080569 C107.915423,149.718332 107.892794,151.344895 107.936921,152.962425 L107.025813,153 Z M91,71.661322 C94.4033325,68.8736074 98.0051368,66.3158723 101.759503,64 L102,64.3669885 C98.2551689,66.6734239 94.6713754,69.2220717 91.2779312,72 L91,71.661322 Z M223,74.2930392 L223.307825,74 C224.924372,75.19422 226.481448,76.4390926 228,77.7125544 L227.656643,78 C226.143701,76.7302672 224.605326,75.4832194 223,74.2930392 Z M54,137.939054 C55.2236668,128.071147 57.8270098,118.697664 61.5974175,110 L62,110.184282 C58.2529407,118.844079 55.6584417,128.174648 54.4414964,138 L54,137.939054 Z M81,119.712823 C93.9833091,88.1780735 126.758342,67.2267319 163.060471,70.2981252 C180.025015,71.7365346 195.313501,78.2144217 207.537099,88.0933976 L207.474371,88.1694258 C208.680517,89.1459011 209.856949,90.1501213 211,91.1932564 L209.439127,92.8536249 C197.057057,81.5974944 180.918986,74.1517798 162.805889,72.6146418 C141.167896,70.7885248 120.832527,77.7423985 105.428122,90.4711691 C102.493461,92.8910985 99.7462505,95.524339 97.1956629,98.3453078 L96.0478434,97.3454115 C90.0688376,103.968509 85.1884956,111.601952 81.7354995,120 L81,119.712823 Z M103.35473,109 C106.079146,105.50168 109.120724,102.28874 112.449843,99.4208516 C125.414478,88.2254119 142.541235,82.1112275 160.754579,83.7227007 C164.931149,84.0914716 168.9849,84.8571808 172.876458,85.973871 L173,85.5272691 C169.078821,84.4016839 165.002312,83.6252266 160.792869,83.2564557 C137.749485,81.2183942 116.44652,91.4768964 103,108.714249 L103.35473,109 Z M111.187921,95.5474549 C109.478086,96.9594233 107.837238,98.4414278 106.263893,100 L103,96.8494705 C105.879273,93.9943259 108.98776,91.3714248 112.289856,89 L115,92.6211856 C113.698152,93.5570547 112.426346,94.5310263 111.187921,95.5474549 Z M162.848697,74.2763998 C172.588257,75.090235 181.737818,77.6567276 190,81.6271925 L187.985727,85.5646353 C180.226747,81.8271006 171.619575,79.414001 162.455731,78.6512968 C146.36828,77.3027164 131.086173,81.2550724 118.40724,89 L116,85.2859003 C129.484277,77.0477715 145.744588,72.8440214 162.848697,74.2763998 Z M99.0564718,135.059577 C93.2754393,155.794687 100.040804,176.909532 114.858534,191 L116,189.905026 C113.829681,187.845251 111.826597,185.641278 110.028536,183.296343 L108.95591,184.059409 C107.628502,182.331543 106.399116,180.532836 105.282717,178.672639 C104.13115,176.752029 103.097059,174.774962 102.181567,172.740359 L103.410953,172.232607 C101.093227,167.091083 99.5652864,161.601467 98.9386213,155.937088 L97.60635,156.073735 C96.8464952,149.241383 97.3560581,142.160189 99.3202323,135.125743 C99.8933971,133.054462 100.589276,131.048267 101.377939,129.094215 L101.127647,129 C100.33412,130.963043 99.6393639,132.978587 99.0564718,135.059577 Z M91,132.868688 C91.9481204,129.099373 93.1646539,125.473766 94.6125191,122 L95,122.202197 C93.56132,125.651173 92.3536316,129.257412 91.414016,133 L91,132.868688 Z M93.4054617,176 C95.9306068,182.185043 99.3188564,187.929583 103.43729,193.033024 C103.622039,193.258603 103.815956,193.470588 104,193.696902 L103.668227,194 C99.2737267,188.694126 95.6541876,182.690942 93,176.181859 L93.4054617,176 Z M68.4018141,20 L68,19.4247796 C80.8689994,10.8483428 94.6116981,4.4035844 108.789787,0 L109,0.661074246 C94.8934424,5.04498381 81.2084064,11.4664902 68.4018141,20 Z M6.25099878,199 C3.45967228,191.144635 1.36830525,183.155901 0,175.109022 L0.779804296,175 C2.14365121,183.012719 4.22448034,190.963296 7,198.78123 L6.25099878,199 Z M135.131234,116 L135,115.808281 C138.380175,114.067273 142.070148,112.773402 145.938686,112 L146,112.220306 C142.319349,112.95207 138.797901,114.152101 135.55398,115.775965 L135.131234,116 Z M177.861588,119 C176.334434,117.605983 174.716768,116.356249 173,115.277955 L173.099101,115 C174.829744,116.082962 176.464257,117.345003 178,118.750902 L177.861588,119 Z M117,175.738004 L116.654928,176 C114.720434,172.619404 113.152938,168.978732 112,165.1552 L112.397355,165 C113.289887,167.962248 114.429333,170.814626 115.798152,173.515646 C116.182352,174.270133 116.584767,175.009255 117,175.738004 Z M128,123.191374 C123.159085,127.977217 119.481677,134.097435 117.596899,141.196617 C116.554776,145.140191 116.137704,149.111853 116.288694,152.985394 L116.031493,153 C115.876803,149.092379 116.288694,145.101242 117.339699,141.124337 C119.230028,133.979464 122.936301,127.81543 127.816074,123 L128,123.191374 Z M119,164.090097 C120.905639,169.322573 123.942675,174.062399 127.834567,178 L128,177.829897 C125.599813,175.408088 123.52103,172.686797 121.854778,169.713594 C120.831685,167.892913 119.958953,165.97709 119.239037,164 L119,164.090097 Z M137,108.411801 C135.512097,109.073246 134.053253,109.806801 132.642228,110.621619 C125.54333,114.701197 119.522563,120.64834 115.395425,128 L115,127.779274 C119.998913,118.879608 127.73932,112.016252 136.81792,108 L137,108.411801 Z M187.689768,118 C185.392151,115.51176 182.833411,113.268849 180,111.382224 L180.222175,111 C183.0776,112.907879 185.68003,115.155473 188,117.66713 L187.689768,118 Z M137.916139,111 L139,113.166771 C137.6776,113.696033 136.388744,114.280357 135.134551,114.927752 C132.865076,116.103408 130.723071,117.466275 128.732016,119 L127,117.204647 C130.283265,114.665791 133.967574,112.581112 137.916139,111 Z" transform="translate(0 35)"/>
      <g transform="translate(71 83)">
        <path fill="#E4E4E4" d="M10,0 L137,0 C142.522847,-1.01453063e-15 147,4.4771525 147,10 L147,63 C147,68.5228475 142.522847,73 137,73 L10,73 C4.4771525,73 6.76353751e-16,68.5228475 0,63 L1.77635684e-15,10 C1.10000309e-15,4.4771525 4.4771525,1.01453063e-15 10,0 Z"/>
        <path stroke="#217C60" stroke-width="2" d="M10,1 C5.02943725,1 1,5.02943725 1,10 L1,63 C1,67.9705627 5.02943725,72 10,72 L137,72 C141.970563,72 146,67.9705627 146,63 L146,10 C146,5.02943725 141.970563,1 137,1 L10,1 Z"/>
        <g fill="#217C60" transform="translate(14 13)">
          <path fill-rule="nonzero" d="M10.055052 7.36657686C9.99712181 8.8744989 8.87611829 9.99518858 7.36777397 10.0532824 5.8605091 10.1111964 4.73482799 8.78672863 4.68031602 7.36657686 4.62238581 5.86009367 5.94758432 4.7347277 7.36777397 4.68005114 8.87485894 4.62213715 10.0003601 5.94660494 10.055052 7.36657686 10.07844 7.97341476 11.0231342 7.9757529 10.9995663 7.36657686 10.9211266 5.33455118 9.40036869 3.81403913 7.36777397 3.73580129 5.33697833 3.65756345 3.80956381 5.45181802 3.73580174 7.36657686 3.65754199 9.39716368 5.45247893 10.9237909 7.36777397 10.9975323 9.39892943 11.0757701 10.9256243 9.2813357 10.9995663 7.36657686 11.0231342 6.75740081 10.07844 6.75973895 10.055052 7.36657686zM7.80338542 2.37256912C7.80338542 1.77461289 7.80338542 1.17665665 7.80338542.578700407 7.80338542-.192900136 6.82796224-.192900136 6.82796224.578700407 6.82796224 1.17665665 6.82796224 1.77461289 6.82796224 2.37256912 6.82796224 3.14416967 7.80338542 3.14416967 7.80338542 2.37256912L7.80338542 2.37256912zM7.80338542 14.1776026C7.80338542 13.5796001 7.80338542 12.9818256 7.80338542 12.3838232 7.80338542 11.6121631 6.82796224 11.6121631 6.82796224 12.3838232 6.82796224 12.9818256 6.82796224 13.5796001 6.82796224 14.1776026 6.82796224 14.9492627 7.80338542 14.9492627 7.80338542 14.1776026L7.80338542 14.1776026zM2.35255985 6.88629557C1.75953449 6.88629557 1.16673504 6.88629557.573709679 6.88629557-.19123656 6.88629557-.19123656 7.87005208.573709679 7.87005208 1.16673504 7.87005208 1.75953449 7.87005208 2.35255985 7.87005208 3.11750609 7.87005208 3.11750609 6.88629557 2.35255985 6.88629557L2.35255985 6.88629557zM14.0575051 6.88629557C13.4645683 6.88629557 12.8718575 6.88629557 12.2789207 6.88629557 11.5137973 6.88629557 11.5137973 7.87005208 12.2789207 7.87005208 12.8718575 7.87005208 13.4645683 7.87005208 14.0575051 7.87005208 14.8226285 7.87005208 14.8226285 6.88629557 14.0575051 6.88629557L14.0575051 6.88629557zM11.5380878 3.79437191C11.8723338 3.4571673 12.20676 3.119781 12.5410061 2.78275807 12.972733 2.34744435 12.3037004 1.67285343 11.8719735 2.10816715 11.5377274 2.44537177 11.2033012 2.78275807 10.8690551 3.119781 10.4375084 3.55509471 11.106541 4.22968563 11.5380878 3.79437191L11.5380878 3.79437191zM2.7594879 12.648116C3.09359179 12.3109907 3.42787588 11.9736837 3.76215998 11.6367402 4.1939361 11.2012943 3.52500749 10.5266803 3.09305117 10.9619444 2.75894728 11.2990697 2.42466318 11.6363767 2.09037908 11.9733202 1.65860296 12.4089479 2.32753157 13.0835619 2.7594879 12.648116L2.7594879 12.648116zM3.76224907 3.11979003C3.4279507 2.78277084 3.09347212 2.44538828 2.75935397 2.1081874 2.32755942 1.67287851 1.65878247 2.34728026 2.09021659 2.78277084 2.42451496 3.11979003 2.75899354 3.45717259 3.09311169 3.79437347 3.52490624 4.22968236 4.1938634 3.55509893 3.76224907 3.11979003L3.76224907 3.11979003zM12.54105 11.97336C12.2067334 11.6364328 11.8724167 11.2991423 11.5382802 10.9620334 11.106462 10.5266087 10.4374683 11.2011899 10.8691062 11.6367963 11.2034229 11.9737234 11.5377396 12.311014 11.871876 12.6481228 12.3036942 13.0835475 12.972688 12.4089664 12.54105 11.97336L12.54105 11.97336z"/>
          <path d="M106,12.6012978 C106.526316,4.46777969 111.947368,2.08129832 121,3.29889086 C120.947368,11.2862979 115,13.6727793 107.736842,12.8448163 C110.684211,9.92259424 114.526316,7.19518697 118.263158,4.9548167 C113.947368,6.51333515 109.526316,9.63037204 106,12.6012978 Z"/>
          <path fill-rule="nonzero" d="M84.3383566,6.46489029 L82.798172,6.46718891 L83.104619,5.97329313 C83.299767,5.65884257 83.2085679,5.24263998 82.900921,5.04373314 C82.5926741,4.84375362 82.1852781,4.93769036 81.9902801,5.25122148 L81.2348877,6.46933428 L78.6391636,6.47316531 L79.9360506,4.14620053 L81.7268827,4.04674712 C82.0915291,4.02667254 82.3703763,3.70961689 82.3502765,3.33708799 C82.3307767,2.96547853 82.0202798,2.68014377 81.6556334,2.70098454 L80.7124429,2.75262677 L81.1279387,2.00741572 C81.3080869,1.68407719 81.197538,1.27308479 80.8810412,1.08827613 C80.5640944,0.904233672 80.1619484,1.0171723 79.9810502,1.34143028 L79.5633044,2.09093207 L79.3056069,1.61358632 C79.1304087,1.28687648 78.7288627,1.16872766 78.4089159,1.34847937 C78.0904691,1.52792459 77.9745203,1.93799754 78.1500185,2.26378794 L78.797112,3.46519747 L77.499925,5.7930817 L76.202438,3.46535072 L76.8495315,2.26394118 C77.0250297,1.93815078 76.9092309,1.52807783 76.5906341,1.34863261 C76.2706873,1.16903414 75.8692913,1.28718296 75.6940931,1.61373956 L75.4363956,2.09108531 L75.0186498,1.34158352 C74.8377516,1.01732554 74.4356056,0.904386913 74.1186588,1.08842937 C73.802312,1.27308479 73.6916131,1.68407719 73.8717613,2.00756896 L74.2872571,2.75278001 L73.3439166,2.70113779 C72.9794202,2.68029701 72.6687733,2.96563177 72.6492735,3.33724123 C72.6291737,3.70977013 72.9081709,4.02682579 73.2728173,4.04690036 L75.0636494,4.14635377 L76.3605364,6.47331855 L73.7648124,6.46933428 L73.0094199,5.25122148 C72.8144219,4.93769036 72.4070259,4.84375362 72.098779,5.04373314 C71.7911321,5.24263998 71.699933,5.65884257 71.895081,5.97329313 L72.201378,6.46718891 L70.6614934,6.46489029 C70.296997,6.46489029 70.0012,6.76616213 70,7.13853779 C70,7.51045372 70.2944471,7.81356445 70.6584934,7.81356445 L72.1752782,7.81586306 L71.696483,8.60198946 C71.504485,8.9175127 71.599134,9.33279584 71.9082809,9.53093647 C72.2175778,9.72693173 72.6248238,9.63054313 72.8168218,9.31333424 L73.7279127,7.81831492 L76.3648864,7.82214594 L75.104599,10.0746356 L73.7427626,10.1544742 C73.3790162,10.1770006 73.100769,10.4943627 73.1219188,10.8658189 C73.1430686,11.2372751 73.4544655,11.5229164 73.8180618,11.5000835 L74.3235568,11.4706612 L73.5530145,12.8476849 C73.3730163,13.1716365 73.4828152,13.5833951 73.798862,13.7674375 C74.1147589,13.9533189 74.5178048,13.8409932 74.698853,13.5167352 L75.499095,12.0866901 L75.9723403,12.9543407 C76.1500885,13.2805908 76.5513345,13.3978202 76.8699313,13.2154634 C77.1876281,13.0349455 77.302977,12.6248725 77.1255287,12.2992354 L76.2642374,10.719014 L77.497975,8.51402911 L77.499925,8.51755366 L77.501875,8.51402911 L78.7357626,10.719014 L77.8746213,12.2992354 C77.697173,12.6248725 77.8125219,13.0349455 78.1302187,13.2154634 C78.4486655,13.3976669 78.8499115,13.2805908 79.0276597,12.9543407 L79.500905,12.0866901 L80.301147,13.5167352 C80.4818952,13.8409932 80.8850911,13.9533189 81.200988,13.7674375 C81.5170348,13.5833951 81.6268337,13.1716365 81.4468355,12.8476849 L80.6762932,11.4706612 L81.1816382,11.5000835 C81.5453845,11.5229164 81.8567814,11.2372751 81.8779312,10.8658189 C81.899231,10.4943627 81.6208338,10.1771538 81.2569374,10.1544742 L79.895101,10.0746356 L78.6349637,7.82214594 L81.2719373,7.81831492 L82.1828782,9.31333424 C82.3748763,9.63054313 82.7822722,9.72693173 83.0914191,9.53093647 C83.400566,9.33279584 83.495365,8.9175127 83.303367,8.60198946 L82.8244218,7.81586306 L84.3413566,7.81356445 C84.7054029,7.81356445 85,7.51045372 85,7.13853779 C84.9985,6.76616213 84.702853,6.46489029 84.3383566,6.46489029 Z"/>
          <g fill-rule="nonzero" transform="translate(33 2)">
            <path d="M2.48987854 5.85106383C1.82186235 5.85106383 1.82186235 4.85638298 2.48987854 4.85638298L9.77732794 4.85638298C10.8097166 4.85638298 12.0242915 4.85638298 13.0566802 5.20744681 16.0323887 6.31914894 15.3643725 10.6489362 12.145749 10.9414894 11 11 11 10 12.0242915 9.94680851 14.2105263 9.7712766 14.5748988 6.84574468 12.6315789 6.14361702 11.8421053 5.85106383 10.7489879 5.85106383 9.77732794 5.85106383L2.48987854 5.85106383zM4.43319838 4.21276596C3.76518219 4.21276596 3.76518219 3.21808511 4.43319838 3.21808511L8.92712551 3.21808511C9.53441296 3.21808511 10.2024291 3.21808511 10.6275304 3.04255319 11.659919 2.63297872 11.4777328 1.17021277 10.3238866 1.05319149 9.65587045.994680851 9 1 8.03238866 2.11702128 7.97165992 2.7606383 6.93927126 2.64361702 7 2 7.18218623.888297872 9.23076923-.0585106383 10.4453441.0585106383 12.6315789.234042553 13.0566802 3.21808511 11.0526316 3.9787234 10.3846154 4.21276596 9.5951417 4.21276596 8.92712551 4.21276596L4.43319838 4.21276596z"/>
            <path d="M0.546558704,7.60638298 C-0.12145749,7.60638298 -0.12145749,6.61170213 0.546558704,6.61170213 L5.10121457,6.61170213 C5.70850202,6.61170213 6.49797571,6.61170213 7.1659919,6.90425532 C9.17004049,7.66489362 8.74493927,10.5904255 6.55870445,10.7659574 C5.34412955,10.8829787 5.82995951,9.82978723 6.43724696,9.7712766 C7.59109312,9.71276596 7.77327935,8.19148936 6.80161943,7.78191489 C6.31578947,7.60638298 5.64777328,7.60638298 5.10121457,7.60638298 L0.546558704,7.60638298 Z"/>
          </g>
          <circle cx="24" cy="8" r="2" opacity=".2"/>
          <circle cx="59" cy="8" r="2" opacity=".2"/>
          <circle cx="96" cy="8" r="2" opacity=".2"/>
        </g>
      </g>
      <rect width="75" height="97" x="143" y="244" fill="#383838" rx="10"/>
      <rect width="74" height="96" x="143.5" y="244.5" stroke="#5B5B5B" rx="10"/>
      <g transform="translate(150 250)">
        <rect width="28" height="11" fill="#FFF" opacity=".21" rx="2"/>
        <rect width="28" height="11" x="1" y="46" fill="#FFF" opacity=".21" rx="2"/>
        <rect width="28" height="11" x="34" fill="#FFF" opacity=".21" rx="2"/>
        <rect width="28" height="11" x="35" y="46" fill="#FFF" opacity=".21" rx="2"/>
        <path fill="#FFF" d="M7.264 8.096C5.664 8.096 4.536 6.928 4.536 5.336 4.536 3.744 5.664 2.576 7.264 2.576 8.864 2.576 9.992 3.744 9.992 5.336 9.992 6.928 8.864 8.096 7.264 8.096zM7.264 7.264C8.336 7.264 9.032 6.432 9.032 5.336 9.032 4.232 8.336 3.408 7.264 3.408 6.184 3.408 5.496 4.232 5.496 5.336 5.496 6.432 6.184 7.264 7.264 7.264zM13.208 8.096C11.656 8.096 10.896 7.208 10.896 5.896L10.896 2.664 11.84 2.664 11.84 5.864C11.84 6.712 12.312 7.264 13.208 7.264 14.096 7.264 14.568 6.712 14.568 5.864L14.568 2.664 15.512 2.664 15.512 5.888C15.512 7.216 14.752 8.096 13.208 8.096zM18.856 8L17.92 8 17.92 3.488 16.304 3.488 16.304 2.664 20.472 2.664 20.472 3.488 18.856 3.488 18.856 8zM25.224 8L24.288 8 24.288 3.88 23.416 4.784 22.872 4.216 24.408 2.664 25.224 2.664 25.224 8zM6.488 54.096C4.888 54.096 3.76 52.928 3.76 51.336 3.76 49.744 4.888 48.576 6.488 48.576 8.088 48.576 9.216 49.744 9.216 51.336 9.216 52.928 8.088 54.096 6.488 54.096zM6.488 53.264C7.56 53.264 8.256 52.432 8.256 51.336 8.256 50.232 7.56 49.408 6.488 49.408 5.408 49.408 4.72 50.232 4.72 51.336 4.72 52.432 5.408 53.264 6.488 53.264zM12.432 54.096C10.88 54.096 10.12 53.208 10.12 51.896L10.12 48.664 11.064 48.664 11.064 51.864C11.064 52.712 11.536 53.264 12.432 53.264 13.32 53.264 13.792 52.712 13.792 51.864L13.792 48.664 14.736 48.664 14.736 51.888C14.736 53.216 13.976 54.096 12.432 54.096zM18.08 54L17.144 54 17.144 49.488 15.528 49.488 15.528 48.664 19.696 48.664 19.696 49.488 18.08 49.488 18.08 54zM24.184 54.096C23.232 54.096 22.528 53.712 22.168 53.232L22.672 52.616C23.016 53.016 23.584 53.264 24.152 53.264 24.856 53.264 25.264 52.944 25.264 52.448 25.264 51.92 24.84 51.696 24.08 51.696 23.856 51.696 23.544 51.696 23.464 51.704L23.464 50.864C23.56 50.872 23.872 50.872 24.08 50.872 24.704 50.872 25.176 50.656 25.176 50.168 25.176 49.672 24.696 49.416 24.096 49.416 23.552 49.416 23.104 49.624 22.72 50.008L22.24 49.424C22.648 48.944 23.296 48.584 24.184 48.584 25.336 48.584 26.112 49.128 26.112 50.024 26.112 50.736 25.504 51.152 24.952 51.248 25.472 51.296 26.192 51.72 26.192 52.544 26.192 53.448 25.416 54.096 24.184 54.096zM39.404 8.096C37.804 8.096 36.676 6.928 36.676 5.336 36.676 3.744 37.804 2.576 39.404 2.576 41.004 2.576 42.132 3.744 42.132 5.336 42.132 6.928 41.004 8.096 39.404 8.096zM39.404 7.264C40.476 7.264 41.172 6.432 41.172 5.336 41.172 4.232 40.476 3.408 39.404 3.408 38.324 3.408 37.636 4.232 37.636 5.336 37.636 6.432 38.324 7.264 39.404 7.264zM45.348 8.096C43.796 8.096 43.036 7.208 43.036 5.896L43.036 2.664 43.98 2.664 43.98 5.864C43.98 6.712 44.452 7.264 45.348 7.264 46.236 7.264 46.708 6.712 46.708 5.864L46.708 2.664 47.652 2.664 47.652 5.888C47.652 7.216 46.892 8.096 45.348 8.096zM50.996 8L50.06 8 50.06 3.488 48.444 3.488 48.444 2.664 52.612 2.664 52.612 3.488 50.996 3.488 50.996 8zM59.156 8L55.292 8 55.292 7.264C57.364 5.696 58.172 5 58.172 4.232 58.172 3.672 57.692 3.416 57.204 3.416 56.58 3.416 56.1 3.672 55.764 4.056L55.22 3.44C55.692 2.872 56.444 2.584 57.188 2.584 58.22 2.584 59.124 3.168 59.124 4.232 59.124 5.216 58.22 6.096 56.788 7.176L59.156 7.176 59.156 8zM40.464 54.096C38.864 54.096 37.736 52.928 37.736 51.336 37.736 49.744 38.864 48.576 40.464 48.576 42.064 48.576 43.192 49.744 43.192 51.336 43.192 52.928 42.064 54.096 40.464 54.096zM40.464 53.264C41.536 53.264 42.232 52.432 42.232 51.336 42.232 50.232 41.536 49.408 40.464 49.408 39.384 49.408 38.696 50.232 38.696 51.336 38.696 52.432 39.384 53.264 40.464 53.264zM46.408 54.096C44.856 54.096 44.096 53.208 44.096 51.896L44.096 48.664 45.04 48.664 45.04 51.864C45.04 52.712 45.512 53.264 46.408 53.264 47.296 53.264 47.768 52.712 47.768 51.864L47.768 48.664 48.712 48.664 48.712 51.888C48.712 53.216 47.952 54.096 46.408 54.096zM52.056 54L51.12 54 51.12 49.488 49.504 49.488 49.504 48.664 53.672 48.664 53.672 49.488 52.056 49.488 52.056 54zM59.656 54L58.72 54 58.72 52.792 56.176 52.792 56.176 52.04 58.368 48.664 59.656 48.664 59.656 51.968 60.368 51.968 60.368 52.792 59.656 52.792 59.656 54zM58.72 51.968L58.72 49.504 57.096 51.968 58.72 51.968z"/>
        <g transform="translate(1 13)">
          <rect width="27" height="27" fill="#393939" rx="13.5"/>
          <rect width="26" height="26" x=".5" y=".5" stroke="#A8A8A8" rx="13"/>
        </g>
        <g transform="translate(1 59)">
          <rect width="27" height="27" fill="#393939" rx="13.5"/>
          <rect width="26" height="26" x=".5" y=".5" stroke="#A8A8A8" rx="13"/>
        </g>
        <g transform="translate(34 59)">
          <rect width="27" height="27" fill="#393939" rx="13.5"/>
          <rect width="26" height="26" x=".5" y=".5" stroke="#A8A8A8" rx="13"/>
        </g>
        <g transform="translate(34 13)">
          <rect width="27" height="27" fill="#393939" rx="13.5"/>
          <rect width="26" height="26" x=".5" y=".5" stroke="#A8A8A8" rx="13"/>
        </g>
      </g>
      <g transform="translate(71 296)">
        <rect width="28" height="11" fill="#FFF" rx="2"/>
        <path fill="#868686" fill-rule="nonzero" d="M9.15,8.21 C7.377,8.21 6,6.95 6,5.105 C6,3.251 7.377,2 9.15,2 C10.356,2 11.112,2.621 11.553,3.341 L10.662,3.809 C10.374,3.305 9.789,2.936 9.15,2.936 C7.962,2.936 7.08,3.836 7.08,5.105 C7.08,6.356 7.962,7.274 9.15,7.274 C9.789,7.274 10.374,6.896 10.662,6.401 L11.562,6.851 C11.103,7.571 10.356,8.21 9.15,8.21 Z M16.026,8.102 L12.327,8.102 L12.327,2.099 L13.38,2.099 L13.38,7.175 L16.026,7.175 L16.026,8.102 Z M21.849,8.102 L20.544,8.102 L18.537,5.564 L18.006,6.185 L18.006,8.102 L16.953,8.102 L16.953,2.099 L18.006,2.099 L18.006,4.952 L20.355,2.099 L21.66,2.099 L19.221,4.925 L21.849,8.102 Z"/>
        <g transform="translate(34)">
          <rect width="28" height="11" fill="#FFF" rx="2"/>
          <path fill="#868686" d="M11.54,8 L10.46,8 L9.276,6.008 L8.348,6.008 L8.348,8 L7.412,8 L7.412,2.664 L9.756,2.664 C10.812,2.664 11.5,3.352 11.5,4.336 C11.5,5.288 10.876,5.8 10.236,5.904 L11.54,8 Z M9.628,5.184 C10.156,5.184 10.54,4.848 10.54,4.336 C10.54,3.824 10.156,3.488 9.628,3.488 L8.348,3.488 L8.348,5.184 L9.628,5.184 Z M14.26,8.096 C13.276,8.096 12.564,7.752 12.092,7.248 L12.612,6.528 C12.98,6.92 13.556,7.264 14.3,7.264 C15.068,7.264 15.372,6.888 15.372,6.536 C15.372,5.416 12.26,6.112 12.26,4.144 C12.26,3.264 13.036,2.584 14.204,2.584 C15.036,2.584 15.708,2.848 16.204,3.328 L15.668,4.024 C15.252,3.608 14.684,3.416 14.124,3.416 C13.572,3.416 13.22,3.68 13.22,4.08 C13.22,5.072 16.324,4.456 16.324,6.448 C16.324,7.336 15.7,8.096 14.26,8.096 Z M19.316,8 L18.38,8 L18.38,3.488 L16.764,3.488 L16.764,2.664 L20.932,2.664 L20.932,3.488 L19.316,3.488 L19.316,8 Z"/>
        </g>
        <g transform="translate(0 14)">
          <rect width="27" height="27" fill="#393939" rx="13.5"/>
          <rect width="26" height="26" x=".5" y=".5" stroke="#A8A8A8" rx="13"/>
        </g>
        <g transform="translate(34.586 14)">
          <rect width="27" height="27" fill="#393939" rx="13.5"/>
          <rect width="26" height="26" x=".5" y=".5" stroke="#A8A8A8" rx="13"/>
        </g>
      </g>
      <g transform="translate(71 249)">
        <path fill="#FFF" d="M2,0 L60,0 C61.1045695,-2.02906125e-16 62,0.8954305 62,2 L62,9 C62,10.1045695 61.1045695,11 60,11 L2,11 C0.8954305,11 1.3527075e-16,10.1045695 0,9 L0,2 C-1.3527075e-16,0.8954305 0.8954305,2.02906125e-16 2,0 Z"/>
        <path fill="#868686" d="M25.7603903,8.89565217 L24.7878569,8.89565217 L24.7878569,4.59130435 L23.0838453,8.89565217 L22.6682327,8.89565217 L20.9725334,4.59130435 L20.9725334,8.89565217 L20,8.89565217 L20,3.09565217 L21.3715215,3.09565217 L22.876039,6.91304348 L24.3888688,3.09565217 L25.7603903,3.09565217 L25.7603903,8.89565217 Z M29.5258403,9 C27.86339,9 26.6913625,7.73043478 26.6913625,6 C26.6913625,4.26956522 27.86339,3 29.5258403,3 C31.1882906,3 32.360318,4.26956522 32.360318,6 C32.360318,7.73043478 31.1882906,9 29.5258403,9 Z M29.5258403,8.09565217 C30.639682,8.09565217 31.3628478,7.19130435 31.3628478,6 C31.3628478,4.8 30.639682,3.90434783 29.5258403,3.90434783 C28.4036863,3.90434783 27.6888327,4.8 27.6888327,6 C27.6888327,7.19130435 28.4036863,8.09565217 29.5258403,8.09565217 Z M35.3610408,8.89565217 L33.2996025,8.89565217 L33.2996025,3.09565217 L35.3610408,3.09565217 C37.0899892,3.09565217 38.2620166,4.29565217 38.2620166,6 C38.2620166,7.70434783 37.0899892,8.89565217 35.3610408,8.89565217 Z M35.3610408,8 C36.5663173,8 37.2645464,7.09565217 37.2645464,6 C37.2645464,4.87826087 36.5995663,3.99130435 35.3610408,3.99130435 L34.2721359,3.99130435 L34.2721359,8 L35.3610408,8 Z M43,8.89565217 L39.201301,8.89565217 L39.201301,3.09565217 L43,3.09565217 L43,3.99130435 L40.1738345,3.99130435 L40.1738345,5.49565217 L42.9418142,5.49565217 L42.9418142,6.39130435 L40.1738345,6.39130435 L40.1738345,8 L43,8 L43,8.89565217 Z"/>
        <g transform="translate(0 14)">
          <rect width="27" height="27" fill="#393939" rx="13.5"/>
          <rect width="26" height="26" x=".5" y=".5" stroke="#A8A8A8" rx="13"/>
        </g>
      </g>
      <circle cx="119" cy="276" r="12" fill="#67867C"/>
      <g transform="translate(174 168)">
        <rect width="44" height="14" fill="#217C60" rx="2"/>
        <path fill="#FFF" d="M14.5,9.91 C12.57,9.91 11,8.54 11,6.45 C11,4.36 12.57,3 14.5,3 C15.8,3 16.65,3.62 17.19,4.39 L16.23,4.93 C15.88,4.43 15.25,4.04 14.5,4.04 C13.18,4.04 12.2,5.05 12.2,6.45 C12.2,7.85 13.18,8.87 14.5,8.87 C15.18,8.87 15.78,8.55 16.08,8.27 L16.08,7.23 L14.09,7.23 L14.09,6.2 L17.25,6.2 L17.25,8.7 C16.59,9.43 15.66,9.91 14.5,9.91 Z M24.42,9.78 L23.09,9.78 L22.6,8.5 L19.54,8.5 L19.05,9.78 L17.72,9.78 L20.34,3.11 L21.8,3.11 L24.42,9.78 Z M22.27,7.47 L21.07,4.29 L19.87,7.47 L22.27,7.47 Z M26.32,9.78 L25.15,9.78 L25.15,3.11 L26.32,3.11 L26.32,9.78 Z M33.52,9.78 L32.39,9.78 L28.91,5.02 L28.91,9.78 L27.74,9.78 L27.74,3.11 L28.94,3.11 L32.35,7.74 L32.35,3.11 L33.52,3.11 L33.52,9.78 Z"/>
      </g>
      <g transform="translate(123 168)">
        <rect width="44" height="14" fill="#217C60" rx="2"/>
        <path fill="#FFF" d="M11.902,10.441 L10.6195,10.441 L9.2135,8.0755 L8.1115,8.0755 L8.1115,10.441 L7,10.441 L7,4.1045 L9.7835,4.1045 C11.0375,4.1045 11.8545,4.9215 11.8545,6.09 C11.8545,7.2205 11.1135,7.8285 10.3535,7.952 L11.902,10.441 Z M9.6315,7.097 C10.2585,7.097 10.7145,6.698 10.7145,6.09 C10.7145,5.482 10.2585,5.083 9.6315,5.083 L8.1115,5.083 L8.1115,7.097 L9.6315,7.097 Z M18.666,10.441 L17.4025,10.441 L16.937,9.225 L14.03,9.225 L13.5645,10.441 L12.301,10.441 L14.79,4.1045 L16.177,4.1045 L18.666,10.441 Z M16.6235,8.2465 L15.4835,5.2255 L14.3435,8.2465 L16.6235,8.2465 Z M24.8505,10.441 L23.777,10.441 L20.471,5.919 L20.471,10.441 L19.3595,10.441 L19.3595,4.1045 L20.4995,4.1045 L23.739,8.503 L23.739,4.1045 L24.8505,4.1045 L24.8505,10.441 Z M29.2395,10.5645 C27.406,10.5645 25.9145,9.263 25.9145,7.2775 C25.9145,5.292 27.406,4 29.2395,4 C30.4745,4 31.282,4.589 31.795,5.3205 L30.883,5.8335 C30.5505,5.3585 29.952,4.988 29.2395,4.988 C27.9855,4.988 27.0545,5.9475 27.0545,7.2775 C27.0545,8.6075 27.9855,9.5765 29.2395,9.5765 C29.8855,9.5765 30.4555,9.2725 30.7405,9.0065 L30.7405,8.0185 L28.85,8.0185 L28.85,7.04 L31.852,7.04 L31.852,9.415 C31.225,10.1085 30.3415,10.5645 29.2395,10.5645 Z M37.3525,10.441 L33.011,10.441 L33.011,4.1045 L37.3525,4.1045 L37.3525,5.083 L34.1225,5.083 L34.1225,6.7265 L37.286,6.7265 L37.286,7.705 L34.1225,7.705 L34.1225,9.4625 L37.3525,9.4625 L37.3525,10.441 Z"/>
      </g>
      <g transform="translate(71 168)">
        <rect width="44" height="14" fill="#217C60" rx="2"/>
        <path fill="#FFF" d="M14.93,9.78 L13.76,9.78 L13.76,4.83 L11.71,9.78 L11.21,9.78 L9.17,4.83 L9.17,9.78 L8,9.78 L8,3.11 L9.65,3.11 L11.46,7.5 L13.28,3.11 L14.93,3.11 L14.93,9.78 Z M19.46,9.9 C17.46,9.9 16.05,8.44 16.05,6.45 C16.05,4.46 17.46,3 19.46,3 C21.46,3 22.87,4.46 22.87,6.45 C22.87,8.44 21.46,9.9 19.46,9.9 Z M19.46,8.86 C20.8,8.86 21.67,7.82 21.67,6.45 C21.67,5.07 20.8,4.04 19.46,4.04 C18.11,4.04 17.25,5.07 17.25,6.45 C17.25,7.82 18.11,8.86 19.46,8.86 Z M26.48,9.78 L24,9.78 L24,3.11 L26.48,3.11 C28.56,3.11 29.97,4.49 29.97,6.45 C29.97,8.41 28.56,9.78 26.48,9.78 Z M26.48,8.75 C27.93,8.75 28.77,7.71 28.77,6.45 C28.77,5.16 27.97,4.14 26.48,4.14 L25.17,4.14 L25.17,8.75 L26.48,8.75 Z M35.67,9.78 L31.1,9.78 L31.1,3.11 L35.67,3.11 L35.67,4.14 L32.27,4.14 L32.27,5.87 L35.6,5.87 L35.6,6.9 L32.27,6.9 L32.27,8.75 L35.67,8.75 L35.67,9.78 Z"/>
      </g>
      <g transform="translate(124 60)">
        <rect width="41" height="14" fill="#217C60" rx="2"/>
        <path fill="#FFF" d="M8.79,10.12 C7.56,10.12 6.67,9.69 6.08,9.06 L6.73,8.16 C7.19,8.65 7.91,9.08 8.84,9.08 C9.8,9.08 10.18,8.61 10.18,8.17 C10.18,6.77 6.29,7.64 6.29,5.18 C6.29,4.08 7.26,3.23 8.72,3.23 C9.76,3.23 10.6,3.56 11.22,4.16 L10.55,5.03 C10.03,4.51 9.32,4.27 8.62,4.27 C7.93,4.27 7.49,4.6 7.49,5.1 C7.49,6.34 11.37,5.57 11.37,8.06 C11.37,9.17 10.59,10.12 8.79,10.12 Z M15.11,10 L13.94,10 L13.94,4.36 L11.92,4.36 L11.92,3.33 L17.13,3.33 L17.13,4.36 L15.11,4.36 L15.11,10 Z M22.69,10 L18.12,10 L18.12,3.33 L22.69,3.33 L22.69,4.36 L19.29,4.36 L19.29,6.09 L22.62,6.09 L22.62,7.12 L19.29,7.12 L19.29,8.97 L22.69,8.97 L22.69,10 Z M25.06,10 L23.89,10 L23.89,3.33 L26.82,3.33 C28.22,3.33 29,4.29 29,5.42 C29,6.55 28.21,7.51 26.82,7.51 L25.06,7.51 L25.06,10 Z M26.66,6.48 C27.32,6.48 27.8,6.06 27.8,5.42 C27.8,4.78 27.32,4.36 26.66,4.36 L25.06,4.36 L25.06,6.48 L26.66,6.48 Z M32.25,10.12 C31.02,10.12 30.13,9.69 29.54,9.06 L30.19,8.16 C30.65,8.65 31.37,9.08 32.3,9.08 C33.26,9.08 33.64,8.61 33.64,8.17 C33.64,6.77 29.75,7.64 29.75,5.18 C29.75,4.08 30.72,3.23 32.18,3.23 C33.22,3.23 34.06,3.56 34.68,4.16 L34.01,5.03 C33.49,4.51 32.78,4.27 32.08,4.27 C31.39,4.27 30.95,4.6 30.95,5.1 C30.95,6.34 34.83,5.57 34.83,8.06 C34.83,9.17 34.05,10.12 32.25,10.12 Z"/>
      </g>
      <g transform="translate(80 15)">
        <path fill="#217C60" d="M6.2575,32.42 C3.9125,32.42 2.0575,31.65 0.6925,30.18 L2.3375,27.31 C3.2475,28.5 4.7175,29.165 6.0475,29.165 C7.5525,29.165 8.6725,27.94 8.6725,26.155 C8.6725,21.5 1.3225,21.36 1.3225,14.465 C1.3225,11.035 3.6325,8.27 7.3425,8.27 C9.1625,8.27 10.8425,8.9 12.0325,10.055 L10.5625,12.855 C9.6875,11.945 8.6375,11.525 7.4475,11.525 C6.0825,11.525 5.0325,12.61 5.0325,14.255 C5.0325,18.315 12.3825,18.98 12.3825,25.945 C12.3825,29.69 9.9675,32.42 6.2575,32.42 Z M24.9125,32 L15.3575,32 L15.3575,8.655 L24.9125,8.655 L24.9125,11.875 L18.9975,11.875 L18.9975,18.49 L24.6675,18.49 L24.6675,21.71 L18.9975,21.71 L18.9975,28.78 L24.9125,28.78 L24.9125,32 Z M40.0325,32 L36.2875,32 L35.4825,27.24 L30.8625,27.24 L30.0575,32 L26.3125,32 L31.0725,8.655 L35.2725,8.655 L40.0325,32 Z M35.0625,24.02 L33.1725,12.82 L31.2825,24.02 L35.0625,24.02 Z M46.2625,32.42 C43.9175,32.42 42.0625,31.65 40.6975,30.18 L42.3425,27.31 C43.2525,28.5 44.7225,29.165 46.0525,29.165 C47.5575,29.165 48.6775,27.94 48.6775,26.155 C48.6775,21.5 41.3275,21.36 41.3275,14.465 C41.3275,11.035 43.6375,8.27 47.3475,8.27 C49.1675,8.27 50.8475,8.9 52.0375,10.055 L50.5675,12.855 C49.6925,11.945 48.6425,11.525 47.4525,11.525 C46.0875,11.525 45.0375,12.61 45.0375,14.255 C45.0375,18.315 52.3875,18.98 52.3875,25.945 C52.3875,29.69 49.9725,32.42 46.2625,32.42 Z M61.3825,32.42 C56.5525,32.42 54.6275,27.1 54.6275,20.345 C54.6275,13.555 56.5525,8.27 61.3825,8.27 C66.2475,8.27 68.1725,13.555 68.1725,20.345 C68.1725,27.1 66.2475,32.42 61.3825,32.42 Z M61.3825,29.165 C63.6575,29.165 64.4275,25.21 64.4275,20.345 C64.4275,15.41 63.6575,11.525 61.3825,11.525 C59.1425,11.525 58.3725,15.41 58.3725,20.345 C58.3725,25.21 59.1425,29.165 61.3825,29.165 Z M83.6775,32 L80.2125,32 L75.0675,17.09 L75.0675,32 L71.4275,32 L71.4275,8.655 L75.0675,8.655 L80.0025,23.18 L80.0025,8.655 L83.6775,8.655 L83.6775,32 Z M91.7625,32.42 C89.4175,32.42 87.5625,31.65 86.1975,30.18 L87.8425,27.31 C88.7525,28.5 90.2225,29.165 91.5525,29.165 C93.0575,29.165 94.1775,27.94 94.1775,26.155 C94.1775,21.5 86.8275,21.36 86.8275,14.465 C86.8275,11.035 89.1375,8.27 92.8475,8.27 C94.6675,8.27 96.3475,8.9 97.5375,10.055 L96.0675,12.855 C95.1925,11.945 94.1425,11.525 92.9525,11.525 C91.5875,11.525 90.5375,12.61 90.5375,14.255 C90.5375,18.315 97.8875,18.98 97.8875,25.945 C97.8875,29.69 95.4725,32.42 91.7625,32.42 Z"/>
        <g fill="#6D9F15" transform="translate(105 8)">
          <circle cx="5.5" cy="19.5" r="5.5" opacity=".5"/>
          <circle cx="18.5" cy="19.5" r="5.5" opacity=".21"/>
          <circle cx="18.5" cy="5.5" r="5.5" opacity=".6"/>
          <circle cx="5.5" cy="5.5" r="5.5"/>
        </g>
      </g>
      <g transform="translate(109 351)">
        <path fill="#4F4F4F" fill-rule="nonzero" d="M4.69546986 4.93564725L3.43572869 4.93564725C2.29086271 4.93564725 1.45977841 4.18581777 1.45977841 3.15275971 1.45977841 2.15664451 2.29086271 1.43341703 3.43572869 1.43341703L7.33314653 1.43341703 7.33314653.14988956 3.55028006.14988956C1.47718374.14988956.0293030899 1.37800275.0293030899 3.13657747.0293030899 4.8395011 1.37930911 6.07535018 3.23925084 6.07535018L4.25386019 6.07535018C5.89158038 6.07535018 7.08048589 6.99308022 7.08048589 8.25782051 7.08048589 9.51214103 5.89158038 10.4230824 4.25386019 10.4230824L.241971944 10.4230824.241971944 11.7066099 4.25386019 11.7066099C6.59459383 11.7066099 8.16754999 10.3401978 8.16754999 8.30518315 8.16754999 6.32124121 6.73958428 4.93564725 4.69546986 4.93564725M14.0366275 6.92993004L12.089902 6.92993004C11.8390223 6.92993004 11.6355014 6.73148059 11.6355014 6.48685256L11.6355014 1.87649451C11.6355014 1.63186648 11.8390223 1.43341703 12.089902 1.43341703L14.0366275 1.43341703C15.8456485 1.43341703 17.1089517 2.56033205 17.1089517 4.17374029 17.1089517 5.77072949 15.8168285 6.92993004 14.0366275 6.92993004M14.102363.14988956L10.3194965.14988956 10.3194965 11.7066099 11.6355014 11.7066099 11.6355014 8.65645604C11.6355014 8.41174908 11.8390223 8.21282601 12.089902 8.21282601L14.102363 8.21282601C16.6390078 8.21282601 18.343192 6.59618132 18.343192 4.18960678 18.343192 1.77324396 16.6390078.14988956 14.102363.14988956M20.1517273 11.7066099L25.5742569 11.7066099 25.5742569 10.4238718 21.9222947 10.4238718C21.6713341 10.4238718 21.4677322 10.2249487 21.4677322 9.98024176L21.4677322 6.91753681C21.4677322 6.67290879 21.6713341 6.47445934 21.9222947 6.47445934L24.9198165 6.47445934 24.9198165 5.2071141 21.9222947 5.2071141C21.6713341 5.2071141 21.4677322 5.00858571 21.4677322 4.76403663L21.4677322 1.87657344C21.4677322 1.63186648 21.6713341 1.43341703 21.9222947 1.43341703L25.4761394 1.43341703 25.4761394.149968498 20.1517273.149968498 20.1517273 11.7066099zM32.2728806 6.681513L32.2778998 6.681513C32.4278285 6.681513 32.5683664 6.7538989 32.6532882 6.87475256L36.0352654 11.7066099 37.9115601 11.7066099 33.2358406 5.45576795C33.1227464 5.30491795 33.1192654 5.10094286 33.2267737 4.94630385L36.5584778.14988956 35.0145845.14988956 29.6840198 8.35096703C29.5763496 8.51752564 29.3684571 8.59409524 29.1736793 8.53962821 28.9796301 8.48437179 28.8458924 8.31070879 28.8458924 8.11415385L28.8458924.14988956 27.5298875.14988956 27.5298875 11.1611502C27.5298875 11.3948059 27.5940848 11.786337 28.0243608 11.786337 28.4414411 11.786337 28.7249456 11.6489853 28.9162423 11.3545476L31.8968445 6.8831989C31.9797424 6.75879304 32.1207661 6.6831707 32.2728806 6.681513M43.6185656 11.7066099L43.6185656 1.87657344C43.6185656 1.63186648 43.8222485 1.43341703 44.0731281 1.43341703L46.8743339 1.43341703 46.8743339.149968498 39.0469543.149968498 39.0469543 1.43341703 41.8483221 1.43341703C42.0990398 1.43341703 42.3027226 1.63186648 42.3027226 1.87657344L42.3027226 11.7066099 43.6185656 11.7066099zM54.7555486 11.7066099L56.6165428 11.7066099 53.4269147 8.40148718C53.3116348 8.28229121 53.273343 8.11020696 53.3280686 7.95469963 53.3824704 7.79919231 53.5203368 7.68607454 53.6870232 7.66041978 56.9897454 7.14977161 57.2465348 4.70404396 57.2465348 3.96629194 57.2465348 1.64804872 55.5369265.149968498 52.8912353.149968498L48.6175385.149968498 48.6175385 11.7066099 49.9335434 11.7066099 49.9335434 1.87657344C49.9335434 1.63186648 50.1369834 1.43341703 50.387944 1.43341703L52.8420147 1.43341703C54.7527152 1.43341703 55.8486034 2.37411795 55.8486034 4.01420714 55.8486034 6.59902308 52.8950402 6.79897234 51.9243085 6.86480641 51.0920098 6.92511484 51.0223076 7.2447337 51.0223076 7.53948718 51.0223076 7.76051282 51.1742602 8.01784982 51.5009137 8.34938828L54.7555486 11.7066099zM66.521876 1.65633718C66.5890687 1.67662418 66.6542374 1.69935824 66.7196491 1.72240806L66.5494007 1.55655989 66.521876 1.65633718z"/>
        <path fill="#00B6F0" fill-rule="nonzero" d="M66.401253,2.0949152 L66.1183961,3.12481575 L65.5314722,5.26473864 L67.7264868,4.69180861 L68.9294785,4.37653132 C68.4720826,3.28490147 67.569434,2.4696326 66.401253,2.0949152"/>
        <path fill="#4F4F4F" fill-rule="nonzero" d="M64.9974928 10.4238718L64.621052 10.4238718C61.911892 10.4238718 59.9455754 8.55304762 59.9455754 5.9762044 59.9455754 3.34410476 61.911892 1.43341703 64.621052 1.43341703L64.9974928 1.43341703C67.706248 1.43341703 69.6726456 3.34410476 69.6726456 5.9762044 69.6726456 8.55304762 67.706248 10.4238718 64.9974928 10.4238718M64.9974928.149968498L64.621052.149968498C61.0471304.149968498 58.6460043 2.42092802 58.6460043 5.80080476 58.6460043 9.22322894 61.1589293 11.7066099 64.621052 11.7066099L64.9974928 11.7066099C68.4032708 11.7066099 70.9719738 9.16797253 70.9719738 5.80080476 70.9719738 2.42092802 68.5708477.149968498 64.9974928.149968498M48.4705242 19.8356172L48.4705242 13.6982088C48.4705242 13.4179799 48.335896 13.2506319 48.1104362 13.2506319 47.8601233 13.2506319 47.6672075 13.349304 47.5367889 13.5427015L43.2403437 19.8356172 44.3281364 19.8356172 47.2823473 15.2911722C47.3181294 15.2359158 47.3861316 15.2114451 47.4524338 15.2288114 47.5169549 15.246967 47.5615611 15.3045916 47.5615611 15.3701099L47.5615611 19.8356172 48.4705242 19.8356172zM54.7987786 13.3035201L53.8807486 13.3035201 53.8807486 16.9022912C53.8807486 18.3689542 53.4280481 18.9404634 52.2659387 18.9404634L52.0327882 18.9404634C50.8772362 18.9404634 50.4268833 18.3689542 50.4268833 16.9022912L50.4268833 13.3035201 49.5088533 13.3035201 49.5088533 16.9022912C49.5088533 18.7944286 50.4053493 19.8356172 52.0327882 19.8356172L52.2659387 19.8356172C53.8757294 19.8356172 54.7987786 18.7668004 54.7987786 16.9022912L54.7987786 13.3035201zM57.6967257 18.9404634L56.9067665 18.9404634C56.82314 18.9404634 56.7552997 18.8749451 56.7552997 18.7928498L56.7552997 14.3462875C56.7552997 14.2649817 56.82314 14.198674 56.9067665 14.198674L57.6967257 14.198674C59.1213722 14.198674 60.1553298 15.2067088 60.1553298 16.5960128 60.1553298 17.9766337 59.1444444 18.9404634 57.6967257 18.9404634M57.6967257 13.3035201L55.8372697 13.3035201 55.8372697 19.8356172 57.6967257 19.8356172C59.6215933 19.8356172 61.0733598 18.4013187 61.0733598 16.4997088 61.0733598 14.6178333 59.6849811 13.3035201 57.6967257 13.3035201"/>
        <polygon fill="#4F4F4F" fill-rule="nonzero" points="62.013 13.304 62.931 13.304 62.931 19.836 62.013 19.836"/>
        <path fill="#4F4F4F" fill-rule="nonzero" d="M67.5079082,18.9404634 L67.3014729,18.9404634 C65.848573,18.9404634 64.8338018,17.9766337 64.8338018,16.5960128 C64.8338018,15.2067088 65.8716452,14.198674 67.3014729,14.198674 L67.5079082,14.198674 C68.937574,14.198674 69.9754174,15.2067088 69.9754174,16.5960128 C69.9754174,17.9545311 68.937574,18.9404634 67.5079082,18.9404634 M67.5079082,13.3035201 L67.3014729,13.3035201 C65.2820497,13.3035201 63.9249197,14.587837 63.9249197,16.4997088 C63.9249197,18.4328938 65.3450328,19.8356172 67.3014729,19.8356172 L67.5079082,19.8356172 C69.4330187,19.8356172 70.8845424,18.4013187 70.8845424,16.4997088 C70.8845424,14.587837 69.5277361,13.3035201 67.5079082,13.3035201"/>
      </g>
      <rect width="15" height="20" x="137" y="197" fill="#5B5B5B" rx="2"/>
      <rect width="15" height="9" x="137" y="186" fill="#6F6F6F" rx="4"/>
      <rect width="15" height="9" x="137" y="220" fill="#6F6F6F" rx="4"/>
      <polygon fill="#FFF" points="146.52 190.9 144.84 190.9 144.84 192.83 143.68 192.83 143.68 190.9 142 190.9 142 189.85 143.68 189.85 143.68 188 144.84 188 144.84 189.85 146.52 189.85"/>
      <path fill="#FFF" d="M142.4,225.08 L140,225.08 L140,223.58 L142.4,223.58 L142.4,225.08 Z M149.06,224.9 L147.38,224.9 L147.38,226.83 L146.22,226.83 L146.22,224.9 L144.54,224.9 L144.54,223.85 L146.22,223.85 L146.22,222 L147.38,222 L147.38,223.85 L149.06,223.85 L149.06,224.9 Z"/>
      <g transform="translate(72 190)">
        <path fill="#3C3C3C" d="M14.9826055 27.9216147L13.8821284 27.9216147 13.8821284 23.0655413 13 23.0655413 13 22.0960734 15.8647339 22.0960734 15.8647339 23.0655413 14.9826055 23.0655413 14.9826055 27.9216147zM19.026422 27.9216147L16.4761101 27.9216147 16.4761101 22.0960734 19.026422 22.0960734 19.026422 23.0655413 17.5765872 23.0655413 17.5765872 24.4717064 18.9652844 24.4717064 18.9652844 25.4411743 17.5765872 25.4411743 17.5765872 26.9521468 19.026422 26.9521468 19.026422 27.9216147zM24.258055 27.9216147L23.1750459 27.9216147 23.1750459 24.2358899 22.205578 27.9216147 21.8387523 27.9216147 20.8867523 24.2358899 20.8867523 27.9216147 19.7862752 27.9216147 19.7862752 22.0960734 21.1837064 22.0960734 22.0221651 25.3188991 22.8868257 22.0960734 24.258055 22.0960734 24.258055 27.9216147zM26.2668624 27.9216147L25.1663853 27.9216147 25.1663853 22.0960734 26.7384954 22.0960734C27.8651743 22.0960734 28.3804771 22.9607339 28.3804771 23.9389358 28.3804771 24.9171376 27.8651743 25.7817982 26.7384954 25.7817982L26.2668624 25.7817982 26.2668624 27.9216147zM26.6162202 24.8123303C27.0354495 24.8123303 27.2537982 24.4629725 27.2537982 23.9389358 27.2537982 23.4148991 27.0354495 23.0655413 26.6162202 23.0655413L26.2668624 23.0655413 26.2668624 24.8123303 26.6162202 24.8123303zM30.6513028 28.026422C29.3674128 28.026422 28.8259083 26.7250642 28.8259083 25.013211 28.8259083 23.3013578 29.3674128 22 30.6513028 22 31.9264587 22 32.4679633 23.3013578 32.4679633 25.013211 32.4679633 26.7250642 31.9264587 28.026422 30.6513028 28.026422zM30.6513028 27.0482202C31.1666055 27.0482202 31.3412844 26.1573578 31.3412844 25.013211 31.3412844 23.8515963 31.1666055 22.9782018 30.6513028 22.9782018 30.1272661 22.9782018 29.9525872 23.8515963 29.9525872 25.013211 29.9525872 26.1573578 30.1272661 27.0482202 30.6513028 27.0482202zM36.4593761 27.9216147L35.2802936 27.9216147 34.6514495 25.7817982 34.2933578 25.7817982 34.2933578 27.9216147 33.1928807 27.9216147 33.1928807 22.0960734 34.8173945 22.0960734C35.7431927 22.0960734 36.4069725 22.8384587 36.4069725 23.904 36.4069725 24.8909358 35.9877431 25.336367 35.6558532 25.5197798L36.4593761 27.9216147zM34.6427156 24.8123303C35.061945 24.8123303 35.2802936 24.4629725 35.2802936 23.9389358 35.2802936 23.4148991 35.061945 23.0655413 34.6427156 23.0655413L34.2933578 23.0655413 34.2933578 24.8123303 34.6427156 24.8123303zM40.450789 27.9216147L39.3241101 27.9216147 39.1494312 26.8473394 38.0576881 26.8473394 37.8830092 27.9216147 36.7563303 27.9216147 37.9703486 22.0960734 39.2367706 22.0960734 40.450789 27.9216147zM39.018422 25.8778716L38.6079266 23.3275596 38.1886972 25.8778716 39.018422 25.8778716zM43.464 27.9216147L40.9136881 27.9216147 40.9136881 22.0960734 42.0141651 22.0960734 42.0141651 26.9521468 43.464 26.9521468 43.464 27.9216147zM18.0875229 36.6555596L17.0045138 36.6555596 17.0045138 32.9698349 16.0350459 36.6555596 15.6682202 36.6555596 14.7162202 32.9698349 14.7162202 36.6555596 13.6157431 36.6555596 13.6157431 30.8300183 15.0131743 30.8300183 15.851633 34.052844 16.7162936 30.8300183 18.0875229 30.8300183 18.0875229 36.6555596zM22.2798165 36.6555596L21.1793394 36.6555596 21.1793394 30.8300183 22.2798165 30.8300183 22.2798165 36.6555596zM24.2798899 36.6555596L25.4589725 36.6555596 26.0878165 34.5157431 26.4459083 34.5157431 26.4459083 36.6555596 27.5463853 36.6555596 27.5463853 30.8300183 25.9218716 30.8300183C24.9960734 30.8300183 24.3322936 31.5724037 24.3322936 32.637945 24.3322936 33.6248807 24.7515229 34.0703119 25.0834128 34.2537248L24.2798899 36.6555596zM26.1227523 33.5462752C25.7035229 33.5462752 25.4851743 33.1969174 25.4851743 32.6728807 25.4851743 32.148844 25.7035229 31.7994862 26.1227523 31.7994862L26.4721101 31.7994862 26.4721101 33.5462752 26.1227523 33.5462752zM29.3892477 36.6555596L30.5683303 36.6555596 31.1971743 34.5157431 31.5552661 34.5157431 31.5552661 36.6555596 32.6557431 36.6555596 32.6557431 30.8300183 31.0312294 30.8300183C30.1054312 30.8300183 29.4416514 31.5724037 29.4416514 32.637945 29.4416514 33.6248807 29.8608807 34.0703119 30.1927706 34.2537248L29.3892477 36.6555596zM31.2321101 33.5462752C30.8128807 33.5462752 30.5945321 33.1969174 30.5945321 32.6728807 30.5945321 32.148844 30.8128807 31.7994862 31.2321101 31.7994862L31.5814679 31.7994862 31.5814679 33.5462752 31.2321101 33.5462752zM36.1318532 36.760367C34.8479633 36.760367 34.3064587 35.4590092 34.3064587 33.747156 34.3064587 32.0353028 34.8479633 30.733945 36.1318532 30.733945 37.4070092 30.733945 37.9485138 32.0353028 37.9485138 33.747156 37.9485138 35.4590092 37.4070092 36.760367 36.1318532 36.760367zM36.1318532 35.7821651C36.647156 35.7821651 36.8218349 34.8913028 36.8218349 33.747156 36.8218349 32.5855413 36.647156 31.7121468 36.1318532 31.7121468 35.6078165 31.7121468 35.4331376 32.5855413 35.4331376 33.747156 35.4331376 34.8913028 35.6078165 35.7821651 36.1318532 35.7821651zM39.7651743 36.6555596L40.9442569 36.6555596 41.5731009 34.5157431 41.9311927 34.5157431 41.9311927 36.6555596 43.0316697 36.6555596 43.0316697 30.8300183 41.407156 30.8300183C40.4813578 30.8300183 39.817578 31.5724037 39.817578 32.637945 39.817578 33.6248807 40.2368073 34.0703119 40.5686972 34.2537248L39.7651743 36.6555596zM41.6080367 33.5462752C41.1888073 33.5462752 40.9704587 33.1969174 40.9704587 32.6728807 40.9704587 32.148844 41.1888073 31.7994862 41.6080367 31.7994862L41.9573945 31.7994862 41.9573945 33.5462752 41.6080367 33.5462752zM19.2618736 5.81986928L18.248976 5.81986928 17.0815686 2.54082789 17.0815686 5.81986928 16 5.81986928 16 .094422658 17.0815686.094422658 18.180305 3.26187364 18.180305.094422658 19.2618736.094422658 19.2618736 5.81986928zM21.7597821 5.92287582C20.4979521 5.92287582 19.9657516 4.643878 19.9657516 2.96143791 19.9657516 1.27899782 20.4979521 0 21.7597821 0 23.0130283 0 23.5452288 1.27899782 23.5452288 2.96143791 23.5452288 4.643878 23.0130283 5.92287582 21.7597821 5.92287582zM21.7597821 4.96148148C22.2662309 4.96148148 22.4379085 4.08592593 22.4379085 2.96143791 22.4379085 1.81978214 22.2662309.961394336 21.7597821.961394336 21.2447495.961394336 21.0730719 1.81978214 21.0730719 2.96143791 21.0730719 4.08592593 21.2447495 4.96148148 21.7597821 4.96148148zM27.468061 5.81986928L26.3092375 5.81986928 25.6911983 3.71681917 25.3392593 3.71681917 25.3392593 5.81986928 24.2576906 5.81986928 24.2576906.094422658 25.8542919.094422658C26.764183.094422658 27.4165577.824052288 27.4165577 1.8712854 27.4165577 2.84126362 27.0045316 3.27904139 26.6783442 3.45930283L27.468061 5.81986928zM25.6826144 2.76400871C26.0946405 2.76400871 26.3092375 2.42065359 26.3092375 1.90562092 26.3092375 1.39058824 26.0946405 1.04723312 25.6826144 1.04723312L25.3392593 1.04723312 25.3392593 2.76400871 25.6826144 2.76400871zM32.60122 5.81986928L31.5368192 5.81986928 31.5368192 2.19747277 30.5840087 5.81986928 30.2234858 5.81986928 29.2878431 2.19747277 29.2878431 5.81986928 28.2062745 5.81986928 28.2062745.094422658 29.579695.094422658 30.4037473 3.26187364 31.2535512.094422658 32.60122.094422658 32.60122 5.81986928zM36.6785621 5.81986928L35.5712418 5.81986928 35.3995643 4.76405229 34.3265795 4.76405229 34.154902 5.81986928 33.0475817 5.81986928 34.2407407.094422658 35.4854031.094422658 36.6785621 5.81986928zM35.2708061 3.81124183L34.8673638 1.30474946 34.4553377 3.81124183 35.2708061 3.81124183zM39.64 5.81986928L37.1335076 5.81986928 37.1335076.094422658 38.2150763.094422658 38.2150763 4.86705882 39.64 4.86705882 39.64 5.81986928z"/>
        <path stroke="#979797" stroke-linecap="square" d="M0.5,14.5 L43.5,14.5" opacity=".8"/>
      </g>
    </g>
  </g>
</svg>
